<?xml version="1.0" encoding="UTF-8"?>
<svg id="Ebene_1" data-name="Ebene 1" xmlns="http://www.w3.org/2000/svg" viewBox="0 0 713.74 228.13">
  <defs>
    <style>
      .cls-1 {
        fill: #036568;
      }

      .cls-1, .cls-2, .cls-3, .cls-4, .cls-5 {
        stroke-width: 0px;
      }

      .cls-2 {
        fill: #90c685;
      }

      .cls-3 {
        fill: #fff;
      }

      .cls-4 {
        fill: #b3cd39;
      }

      .cls-5 {
        fill: #485156;
      }
    </style>
  </defs>
  <path class="cls-2" d="m35.92,104.45v115.38H15.34v-118.87h14.74c1.47,1.27,3.41,2.43,5.84,3.5Zm96.01,72.84h42.86v-16h-42.86v16Zm12.9-70.7c-2.03.6-4.26,1.17-6.72,1.7-12.01,2.58-27.89,4-44.74,4-15.98,0-31.08-1.28-42.84-3.61v8.93h36.74v102.22h20.49v-102.22h37.07v-11.02Zm129.24,7.42v-13.06h-86.13v16.66h61.07l-61.48,88.7v13.52h88.5v-16.66h-63.52l61.56-89.16Zm87.44,85.4c0,7.95,1.11,14.29,3.35,19.02v1.39h-20.25c-.87-1.69-1.63-4.44-2.29-8.25-6.32,6.59-14.04,9.88-23.19,9.88s-16.11-2.53-21.72-7.59c-5.61-5.06-8.41-11.32-8.41-18.78,0-9.42,3.5-16.64,10.49-21.68,6.99-5.03,16.99-7.55,30-7.55h12.17v-5.8c0-4.57-1.28-8.23-3.84-10.98-2.56-2.75-6.45-4.12-11.68-4.12-4.52,0-8.22,1.13-11.1,3.39-2.89,2.26-4.33,5.13-4.33,8.61h-19.84c0-4.84,1.6-9.38,4.82-13.59,3.21-4.22,7.58-7.52,13.1-9.92,5.52-2.4,11.69-3.59,18.49-3.59,10.34,0,18.59,2.6,24.74,7.8,6.15,5.2,9.31,12.51,9.47,21.92v39.84Zm-19.84-21.06h-10.7c-7.35,0-12.87,1.28-16.57,3.84-3.7,2.56-5.55,6.18-5.55,10.86,0,3.81,1.27,6.85,3.8,9.1,2.53,2.26,5.92,3.39,10.16,3.39,3.92,0,7.61-.95,11.06-2.86,3.46-1.91,6.05-4.46,7.8-7.67v-16.66Zm356.7-48.5c-8.49,0-15.13,3.84-19.92,11.51l-.49-9.88h-18.94v88.34h19.84v-60.42c3.16-6.97,9.28-10.45,18.37-10.45,2.78,0,5.47.22,8.08.65l.08-18.61c-1.85-.76-4.19-1.14-7.02-1.14Zm-64.54,11.51c6.56,7.67,9.84,18.53,9.84,32.58v8h-57.72c.6,7.29,3.03,13.06,7.31,17.31,4.27,4.25,9.65,6.37,16.12,6.37,9.09,0,16.49-3.67,22.21-11.02l10.7,10.21c-3.54,5.28-8.26,9.38-14.17,12.29-5.91,2.91-12.53,4.37-19.88,4.37-12.57,0-22.77-3.96-30.58-11.88-7.81-7.92-11.72-18.46-11.72-31.64v-2.45c0-8.82,1.7-16.7,5.1-23.64,3.4-6.94,8.18-12.34,14.33-16.21,6.15-3.86,13.01-5.8,20.57-5.8,12.03,0,21.32,3.84,27.88,11.51Zm-9.76,24.57c-.44-6.64-2.2-11.66-5.31-15.06-3.1-3.4-7.4-5.1-12.9-5.1s-9.84,1.91-13.19,5.72c-3.35,3.81-5.48,9.12-6.41,15.92h37.8v-1.47Zm-80.58-24.09c6.15,8,9.23,19.19,9.23,33.56v1.14c0,13.72-3.06,24.63-9.19,32.74-6.12,8.11-14.55,12.16-25.27,12.16s-18.4-3.73-24.17-11.19l-.98,9.55h-17.96v-125.41h19.84v45.56c5.72-6.75,13.42-10.12,23.11-10.12,10.78,0,19.24,4,25.39,12Zm-10.61,32.98c0-9.58-1.69-16.76-5.06-21.55-3.38-4.79-8.27-7.18-14.7-7.18-8.6,0-14.64,3.76-18.13,11.27v36.41c3.54,7.67,9.63,11.51,18.29,11.51,6.21,0,10.99-2.31,14.37-6.94,3.37-4.63,5.12-11.62,5.23-20.98v-2.53Zm-97.73,20.08c-3.38,6.91-9.88,10.37-19.51,10.37s-13.96-5.6-13.96-16.82v-56.99h-19.84v57.23c0,10.61,2.46,18.73,7.39,24.33,4.93,5.61,12.18,8.41,21.76,8.41,10.72,0,18.99-3.43,24.82-10.29l.49,8.65h18.7v-88.34h-19.84v63.44Z"/>
  <g>
    <path class="cls-3" d="m87.02,7.67c.57,0,1.15.14,1.68.43l40.07,21.62c.98.53,1.65,1.48,1.82,2.58l2.3,14.86-6.3-12.08c-.49-.93-1.36-1.6-2.39-1.83l-26.86-5.81c-.26-.06-.51-.08-.76-.08-2.19,0-3.94,2.04-3.45,4.3l1.38,6.33c.22.99.85,1.84,1.73,2.33l24.39,13.68c.79.44,1.38,1.17,1.65,2.03l7.54,23.96,1.09,3.47c14.74,2.43,24.26,6.24,24.26,10.54,0,7.33-27.66,13.27-61.79,13.27s-61.79-5.94-61.79-13.27c0-4.34,9.71-8.2,24.71-10.62l11.12-29.97c.19-.5.26-1.04.21-1.57l-1.48-15.59c-.08-.84.14-1.68.63-2.37l17.35-24.73c.68-.98,1.78-1.51,2.9-1.51m0-5h0c-2.78,0-5.4,1.36-7,3.64l-17.35,24.73c-1.17,1.66-1.7,3.69-1.51,5.71l1.45,15.26-10,26.95c-6.67,1.21-12.13,2.69-16.23,4.42-6.5,2.73-9.79,6.31-9.79,10.64,0,6.51,7.01,11.04,22.05,14.27,12.01,2.58,27.89,4,44.74,4s32.74-1.42,44.74-4c15.04-3.23,22.05-7.77,22.05-14.27,0-6.97-8.09-11.75-25.4-14.94l-.18-.57-7.54-23.96c-.66-2.08-2.06-3.82-3.97-4.89l-23.82-13.36-.76-3.48,23.98,5.18,5.98,11.47,14,26.85-4.63-29.92-2.3-14.86c-.41-2.63-2.05-4.95-4.39-6.21L91.07,3.69c-1.24-.67-2.64-1.02-4.05-1.03h0Z"/>
    <g>
      <ellipse class="cls-1" cx="93.37" cy="94.02" rx="61.79" ry="13.27"/>
      <path class="cls-1" d="m132.98,90.09l-10.71-34.04c-.27-.86-.86-1.59-1.65-2.03l-24.39-13.68c-.88-.5-1.51-1.35-1.73-2.33l-1.38-6.33c-.55-2.52,1.69-4.77,4.21-4.22l26.86,5.81c1.03.22,1.91.89,2.39,1.83l6.3,12.08-2.3-14.86c-.17-1.1-.84-2.05-1.82-2.58l-40.07-21.62c-1.58-.85-3.55-.39-4.58,1.08l-17.35,24.73c-.48.69-.71,1.53-.63,2.37l1.48,15.59c.05.53-.02,1.07-.21,1.57l-13.55,36.51c-.23.32-.36.64-.36.97,0,4.04,17.85,7.32,39.87,7.32s39.87-3.28,39.87-7.32c0-.28-.09-.56-.26-.83Z"/>
      <path class="cls-4" d="m129.81,80c-6.21,2.56-20.18,4.35-36.44,4.35s-29.45-1.69-35.9-4.14l-3.61,9.72c-.23.32-.36.64-.36.97,0,4.04,17.85,7.32,39.87,7.32s39.87-3.28,39.87-7.32c0-.28-.09-.56-.26-.83l-3.17-10.08Z"/>
    </g>
  </g>
  <g>
    <polygon class="cls-5" points="267.07 118.02 267.07 104.95 180.94 104.95 180.94 121.61 242.01 121.61 180.53 210.31 180.53 223.83 269.03 223.83 269.03 207.17 205.51 207.17 267.07 118.02"/>
    <rect class="cls-5" x="124.93" y="165.29" width="42.86" height="16"/>
    <rect class="cls-5" x="8.34" y="104.95" width="20.57" height="118.87"/>
    <path class="cls-5" d="m137.83,108.35c-11.97,2.54-27.74,3.94-44.46,3.94s-32.74-1.42-44.74-4c-1.82-.39-3.51-.8-5.1-1.23v14.55h36.74v102.22h20.49v-102.22h37.07v-13.26Z"/>
    <path class="cls-5" d="m598.96,133.86c-7.57,0-14.42,1.93-20.57,5.8-6.15,3.87-10.93,9.27-14.33,16.21-3.4,6.94-5.1,14.82-5.1,23.64v2.45c0,13.17,3.91,23.72,11.72,31.64,7.81,7.92,18,11.88,30.58,11.88,7.35,0,13.97-1.46,19.88-4.37,5.91-2.91,10.63-7.01,14.17-12.29l-10.7-10.21c-5.72,7.35-13.12,11.02-22.21,11.02-6.48,0-11.85-2.12-16.12-6.37-4.27-4.25-6.71-10.01-7.31-17.31h57.72v-8c0-14.04-3.28-24.9-9.84-32.58-6.56-7.67-15.85-11.51-27.88-11.51Zm18.12,37.56h-37.8c.93-6.8,3.06-12.11,6.41-15.92,3.35-3.81,7.74-5.72,13.19-5.72s9.8,1.7,12.9,5.1c3.1,3.4,4.87,8.42,5.31,15.06v1.47Z"/>
    <path class="cls-5" d="m691.38,133.86c-8.49,0-15.13,3.84-19.92,11.51l-.49-9.88h-18.94v88.34h19.84v-60.42c3.16-6.97,9.28-10.45,18.37-10.45,2.78,0,5.47.22,8.08.65l.08-18.61c-1.85-.76-4.19-1.14-7.02-1.14Z"/>
    <path class="cls-5" d="m354.52,163.58c-.16-9.42-3.32-16.72-9.47-21.92-6.15-5.2-14.4-7.8-24.74-7.8-6.81,0-12.97,1.2-18.49,3.59-5.52,2.4-9.89,5.7-13.1,9.92-3.21,4.22-4.82,8.75-4.82,13.59h19.84c0-3.48,1.44-6.35,4.33-8.61,2.88-2.26,6.58-3.39,11.1-3.39,5.23,0,9.12,1.38,11.68,4.12,2.56,2.75,3.84,6.41,3.84,10.98v5.8h-12.17c-13.01,0-23.01,2.52-30,7.55-6.99,5.03-10.49,12.26-10.49,21.68,0,7.46,2.8,13.72,8.41,18.78,5.6,5.06,12.85,7.59,21.72,7.59s16.87-3.29,23.19-9.88c.65,3.81,1.42,6.56,2.29,8.25h20.25v-1.39c-2.23-4.74-3.35-11.08-3.35-19.02v-39.84Zm-19.84,35.43c-1.74,3.21-4.34,5.77-7.8,7.67-3.46,1.91-7.14,2.86-11.06,2.86-4.25,0-7.63-1.13-10.16-3.39-2.53-2.26-3.8-5.29-3.8-9.1,0-4.68,1.85-8.3,5.55-10.86,3.7-2.56,9.23-3.84,16.57-3.84h10.7v16.66Z"/>
    <path class="cls-5" d="m511.11,133.86c-9.69,0-17.39,3.38-23.11,10.12v-45.56h-19.84v125.41h17.96l.98-9.55c5.77,7.46,13.82,11.19,24.17,11.19s19.15-4.05,25.27-12.16c6.12-8.11,9.19-19.02,9.19-32.74v-1.14c0-14.37-3.08-25.55-9.23-33.56-6.15-8-14.61-12-25.39-12Zm14.78,47.52c-.11,9.36-1.85,16.36-5.23,20.98-3.38,4.63-8.16,6.94-14.37,6.94-8.65,0-14.75-3.84-18.29-11.51v-36.41c3.48-7.51,9.52-11.27,18.13-11.27,6.42,0,11.32,2.4,14.7,7.18,3.37,4.79,5.06,11.97,5.06,21.55v2.53Z"/>
    <path class="cls-5" d="m428.16,198.93c-3.38,6.91-9.88,10.37-19.51,10.37s-13.96-5.6-13.96-16.82v-56.99h-19.84v57.23c0,10.61,2.46,18.73,7.39,24.33,4.93,5.61,12.18,8.41,21.76,8.41,10.72,0,18.99-3.43,24.82-10.29l.49,8.65h18.7v-88.34h-19.84v63.44Z"/>
  </g>
  <g>
    <rect class="cls-3" x="9.84" y="106.45" width="17.57" height="29.04"/>
    <path class="cls-5" d="m25.92,107.95v26.04h-14.57v-26.04h14.57m3-3H8.34v32.04h20.57v-32.04h0Z"/>
  </g>
</svg>